<svg width="331" height="63" viewBox="0 0 331 63" fill="none" xmlns="http://www.w3.org/2000/svg">
<path d="M249.641 54.8829C249.559 54.4904 249.765 54.0855 250.15 53.9315C251.718 53.3005 253.059 52.1578 253.933 50.7121C254.805 49.2663 255.188 47.5423 255.014 45.863C254.982 45.5649 255.113 45.2718 255.357 45.0954C255.6 44.919 255.918 44.8843 256.194 45.006C257.876 45.7537 260.186 45.8034 262.526 45.1401C266.988 43.8782 270.691 40.1818 271.963 35.7228C273.233 31.2637 272.035 26.1688 268.908 22.7456C265.78 19.3225 260.815 17.668 256.261 18.5275C255.993 18.5772 255.717 18.4953 255.521 18.3065C255.325 18.1177 255.233 17.8444 255.275 17.5736C255.58 15.5938 255.412 13.9418 254.761 12.5184C254.112 11.1 252.997 9.91752 251.618 9.18719C251.218 8.97603 251.064 8.48914 251.256 8.08423H79.107C79.2983 8.48914 79.1418 8.97355 78.7443 9.18719C77.3681 9.91752 76.2527 11.1 75.6019 12.5184C74.951 13.9418 74.7821 15.5938 75.0877 17.5736C75.1299 17.8444 75.038 18.1177 74.8417 18.3065C74.6455 18.4977 74.3673 18.5772 74.1015 18.5275C69.548 17.6656 64.5822 19.3225 61.4547 22.7456C58.3272 26.1688 57.1273 31.2637 58.3992 35.7228C59.6686 40.1818 63.375 43.8782 67.8365 45.1401C70.179 45.8034 72.4868 45.7537 74.1685 45.006C74.4418 44.8843 74.7622 44.919 75.0057 45.0954C75.2491 45.2718 75.3783 45.5649 75.3485 45.863C75.1721 47.5423 75.5572 49.2638 76.4291 50.7121C77.301 52.1603 78.645 53.303 80.2125 53.9315C80.5975 54.0855 80.8037 54.4929 80.7217 54.8829H249.646H249.641Z" fill="#D8E5C7"/>
<path d="M79.8938 55.5528C79.7894 55.5528 79.6826 55.5329 79.5807 55.4907C77.6754 54.7256 76.0433 53.337 74.9851 51.5782C74.1455 50.1871 73.6784 48.5848 73.6263 46.9676C71.7855 47.4471 69.5771 47.3825 67.3762 46.759C62.3657 45.3405 58.2072 41.1895 56.7788 36.184C55.3529 31.176 56.6993 25.4575 60.2119 21.612C63.4686 18.0448 68.499 16.1867 73.2959 16.7083C73.1543 14.8701 73.4126 13.2628 74.0734 11.8171C74.8758 10.0657 76.2545 8.60259 77.9561 7.70085C78.366 7.48224 78.8753 7.63874 79.0939 8.04863C79.3125 8.45851 79.156 8.96776 78.7461 9.18636C77.3699 9.9167 76.2545 11.0991 75.6036 12.5176C74.9528 13.941 74.7839 15.593 75.0894 17.5728C75.1317 17.8436 75.0397 18.1168 74.8435 18.3056C74.6472 18.4969 74.369 18.5764 74.1032 18.5267C69.5498 17.6647 64.584 19.3216 61.4565 22.7448C58.3289 26.1679 57.1291 31.2629 58.401 35.7219C59.6704 40.181 63.3767 43.8774 67.8382 45.1393C70.1808 45.8026 72.4885 45.7529 74.1703 45.0052C74.4435 44.8834 74.764 44.9182 75.0074 45.0946C75.2509 45.271 75.3801 45.5641 75.3503 45.8622C75.1739 47.5415 75.5589 49.263 76.4309 50.7112C77.3028 52.157 78.6467 53.3022 80.2142 53.9307C80.6464 54.1046 80.8551 54.5939 80.6812 55.0237C80.5496 55.3516 80.2341 55.5528 79.9012 55.5528H79.8938Z" fill="#015C42"/>
<path d="M239.528 12.2916C239.538 13.1884 240.32 14.0107 241.217 14.0628C242.114 14.115 242.986 13.3896 243.1 12.5003C242.014 13.1536 240.534 13.0692 239.528 12.2916Z" fill="#015C42"/>
<path d="M231.139 48.2428C229.959 48.2428 228.769 48.0341 227.628 47.6143C227.308 47.4975 227.092 47.1969 227.079 46.8566C227.067 46.5163 227.258 46.2008 227.569 46.0592C230.088 44.9016 232.09 42.6311 232.927 39.9904C233.749 37.3945 233.454 34.3415 232.095 31.3978C231.926 31.0302 232.043 30.5929 232.373 30.3569C233.036 29.8874 233.511 29.0428 233.672 28.0368C233.841 26.9959 233.685 25.8905 233.508 24.9465C233.103 22.7629 232.517 21.106 231.665 19.7348C230.649 18.0977 229.236 16.9302 227.686 16.4433C227.318 16.329 227.077 15.9788 227.097 15.5937C227.117 15.2087 227.397 14.8882 227.775 14.8137C229.74 14.4286 232.311 14.0834 234.763 14.8485C236.939 15.5266 238.658 17.0643 239.48 18.9995C241.644 17.6406 244.506 17.4046 246.833 18.4803C249.223 19.5857 250.937 22.0053 251.461 24.9366C252.5 24.7701 253.677 25.0533 254.708 25.7563C255.538 26.3227 256.181 27.0481 256.807 27.7511C257.021 27.992 257.237 28.2355 257.458 28.469C258.39 29.4502 259.237 29.9694 260.044 30.0539C260.787 30.1284 261.579 29.8104 262.059 29.2391C262.555 28.6479 262.742 27.7685 262.595 26.7003C262.56 26.4519 262.64 26.201 262.809 26.0172C262.978 25.8333 263.216 25.7265 263.472 25.7464C264.483 25.801 265.449 26.4097 265.936 27.2965C266.215 27.8057 266.336 28.3945 266.297 29.0205C266.821 29.0255 267.345 29.1248 267.837 29.3161C268.681 29.6415 269.419 30.2253 270.311 31.2686C270.611 31.6214 270.569 32.153 270.219 32.4536C269.158 33.3628 267.742 33.9118 266.003 34.0931C266.046 34.5701 265.976 35.0594 265.785 35.4991C265.42 36.3437 264.677 36.9449 263.576 37.2902C263.298 37.3771 262.99 37.3125 262.769 37.1188C262.548 36.925 262.446 36.6294 262.498 36.3388C262.62 35.6606 262.498 34.9576 262.168 34.4111C261.833 33.8546 261.274 33.4572 260.675 33.3503C259.502 33.1442 258.34 34.0062 257.751 34.5427C257.378 34.8831 257.031 35.2532 256.661 35.6482C256.092 36.2568 255.503 36.8853 254.79 37.4094C253.627 38.2664 252.288 38.649 251.044 38.5024C250.502 40.845 248.845 42.8919 246.637 43.8756C244.478 44.8345 241.81 44.7327 239.498 43.6372C238.37 45.3984 236.671 46.8094 234.728 47.572C233.58 48.0217 232.363 48.2477 231.139 48.2477V48.2428ZM230.137 46.4989C231.486 46.6604 232.848 46.4939 234.11 45.9996C235.943 45.2792 237.518 43.8657 238.429 42.1194C238.536 41.9156 238.723 41.7641 238.944 41.6995C239.167 41.6374 239.403 41.6672 239.602 41.784C241.609 42.9714 244.041 43.1801 245.949 42.3305C247.877 41.4735 249.31 39.4862 249.521 37.3871C249.546 37.1262 249.693 36.8952 249.914 36.7561C250.135 36.6195 250.408 36.5897 250.651 36.6816C251.767 37.0964 253.004 36.6244 253.789 36.0456C254.375 35.6134 254.887 35.0669 255.428 34.4881C255.804 34.0881 256.191 33.6733 256.616 33.2882C257.585 32.4064 258.618 31.8623 259.622 31.6909C258.484 31.5021 257.374 30.824 256.236 29.6241C256.002 29.3782 255.774 29.1223 255.548 28.8665C254.966 28.2107 254.417 27.5921 253.759 27.145C253.024 26.6432 251.946 26.3376 251.186 26.7848C250.935 26.9313 250.627 26.9413 250.371 26.8071C250.112 26.673 249.943 26.4146 249.921 26.1265C249.702 23.3318 248.249 20.9868 246.128 20.0055C244.014 19.0293 241.331 19.4392 239.607 21.0042C239.383 21.2079 239.07 21.2749 238.785 21.183C238.499 21.0911 238.283 20.8526 238.221 20.5595C237.731 18.289 235.856 16.95 234.264 16.4532C233.074 16.0806 231.817 16.0235 230.627 16.1079C231.571 16.8209 232.413 17.7475 233.094 18.8454C234.06 20.4005 234.718 22.2413 235.163 24.636C235.364 25.7215 235.543 27.0083 235.334 28.3026C235.143 29.485 234.626 30.5358 233.881 31.2761C235.193 34.4235 235.424 37.6727 234.532 40.4947C233.772 42.8944 232.189 45.0283 230.142 46.4964L230.137 46.4989ZM260.953 31.686C260.953 31.686 260.963 31.686 260.968 31.6884C262.036 31.8797 263.022 32.5703 263.606 33.5342C263.872 33.9739 264.053 34.4707 264.148 34.9899C264.183 34.9377 264.212 34.8831 264.237 34.8259C264.384 34.4856 264.356 34.0558 264.168 33.7354C264.016 33.477 264.011 33.1566 264.16 32.8957C264.307 32.6349 264.58 32.471 264.881 32.466C266.309 32.4436 267.486 32.1753 268.396 31.6711C267.983 31.2736 267.613 31.0252 267.233 30.8786C266.669 30.6625 266.041 30.6377 265.462 30.8091C265.154 30.9035 264.823 30.8091 264.605 30.5756C264.386 30.3396 264.322 30.0017 264.436 29.7036C264.677 29.0776 264.687 28.5087 264.463 28.1014C264.419 28.0219 264.366 27.9473 264.304 27.8778C264.222 28.8292 263.899 29.6589 263.348 30.3172C262.739 31.0426 261.877 31.5245 260.953 31.686Z" fill="#015C42"/>
<path d="M235.677 43.1973C235.439 43.1973 235.207 43.0955 235.044 42.9117C234.813 42.6484 234.768 42.2708 234.932 41.9627C236.174 39.6202 236.748 36.8727 236.546 34.2271C236.512 33.7626 236.859 33.3602 237.321 33.3254C237.784 33.2906 238.188 33.6359 238.223 34.1004C238.375 36.0952 238.134 38.1396 237.535 40.0648C237.96 39.5755 238.298 39.0091 238.516 38.3955C238.608 38.1372 238.822 37.9384 239.088 37.8689C239.354 37.7968 239.637 37.8589 239.848 38.0353C241.368 39.3097 243.229 39.6276 244.707 38.87C246.105 38.1521 247.005 36.4927 246.846 34.9301C246.821 34.6792 246.91 34.4308 247.087 34.252C247.266 34.0731 247.514 33.9812 247.765 34.0085C250.16 34.2495 252.549 33.2533 253.928 31.497C252.226 29.865 249.973 29.162 247.914 29.6488C247.626 29.7184 247.323 29.629 247.116 29.4153C246.91 29.2042 246.831 28.8986 246.908 28.6105C247.501 26.3921 246.617 24.1986 244.809 23.3963C243.107 22.6411 240.834 23.3367 239.845 24.9116C239.676 25.1774 239.373 25.3289 239.058 25.3016C238.742 25.2743 238.472 25.0706 238.352 24.7775C238.116 24.1887 237.823 23.6745 237.483 23.2472C238.039 25.1849 238.231 27.2144 238.037 29.2365C237.992 29.6985 237.59 30.0339 237.118 29.9941C236.656 29.9494 236.318 29.5371 236.36 29.075C236.614 26.4592 236.144 23.8235 235.004 21.4562C234.862 21.1605 234.904 20.8078 235.116 20.5544C235.327 20.301 235.665 20.1942 235.983 20.2812C237.336 20.6488 238.489 21.5779 239.316 22.9466C240.938 21.4586 243.457 20.9568 245.492 21.8586C247.718 22.8448 248.975 25.242 248.751 27.828C251.243 27.6665 253.799 28.767 255.647 30.8537C255.893 31.1319 255.928 31.5393 255.731 31.8548C254.266 34.2197 251.454 35.7027 248.53 35.7251C248.376 37.6527 247.208 39.4761 245.474 40.3679C243.676 41.2945 241.517 41.1256 239.647 39.9655C238.844 41.4137 237.525 42.5689 235.968 43.1501C235.871 43.1849 235.771 43.2023 235.675 43.2023L235.677 43.1973Z" fill="#015C42"/>
<path d="M242.904 38.1811C242.64 38.1811 242.362 38.1264 242.081 38.0121C240.782 37.483 239.841 36.231 239.287 34.2909C238.77 32.4874 238.691 30.833 239.051 29.3723C239.5 27.544 240.68 26.0336 242.211 25.3381C242.986 24.9853 243.515 25.1468 243.823 25.343C244.148 25.5517 244.528 25.9889 244.491 26.8807C244.461 27.5912 244.268 28.2867 243.937 28.9102C245.532 29.0593 247.03 29.7598 248.101 30.9125C248.255 31.0789 248.337 31.3 248.324 31.526C248.314 31.7521 248.212 31.9633 248.043 32.1148C246.911 33.1209 245.336 33.8164 243.716 34.0549C244.029 34.7803 244.171 35.4336 244.302 36.0323L244.332 36.1639C244.384 36.395 244.518 37.011 244.166 37.5426C243.895 37.9575 243.43 38.1786 242.904 38.1786V38.1811ZM242.802 26.9205C241.788 27.4272 241.001 28.4855 240.685 29.7747C240.397 30.9472 240.472 32.311 240.906 33.8288C241.18 34.7877 241.709 36.0099 242.668 36.4322L242.66 36.3925C242.476 35.5454 242.3 34.748 241.654 33.7717C241.48 33.5109 241.468 33.1755 241.617 32.9023C241.768 32.629 242.052 32.4651 242.37 32.4651C243.671 32.4899 245.06 32.0974 246.146 31.4341C245.055 30.6765 243.627 30.3883 242.228 30.674C241.841 30.756 241.453 30.5523 241.292 30.1921C241.13 29.8319 241.242 29.4096 241.557 29.1736C242.263 28.6494 242.732 27.7949 242.802 26.9205Z" fill="#015C42"/>
<path d="M239.528 50.231C239.538 49.3342 240.32 48.512 241.217 48.4598C242.114 48.4076 242.986 49.133 243.1 50.0223C242.014 49.369 240.534 49.4535 239.528 50.231Z" fill="#015C42"/>
<path d="M256.201 22.8442C255.573 22.8442 254.947 22.6256 254.465 22.2157C254.11 21.9152 254.067 21.3835 254.368 21.0308C254.671 20.6781 255.2 20.6333 255.553 20.9339C255.806 21.15 256.199 21.2221 256.512 21.1078C256.822 20.996 257.081 20.6905 257.14 20.3626C257.222 19.9055 257.657 19.6024 258.117 19.6794C258.574 19.7614 258.879 20.1961 258.8 20.6557C258.638 21.5748 257.963 22.3747 257.083 22.6902C256.8 22.7921 256.499 22.8417 256.201 22.8417V22.8442Z" fill="#015C42"/>
<path d="M257.953 42.5231C257.545 42.5231 257.19 42.2275 257.123 41.8151C257.063 41.445 256.79 41.1046 256.442 40.968C256.094 40.8289 255.662 40.891 255.367 41.1171C254.999 41.4002 254.47 41.3307 254.187 40.963C253.903 40.5954 253.973 40.0663 254.341 39.7831C255.103 39.1968 256.171 39.0478 257.066 39.403C257.958 39.7582 258.633 40.6004 258.785 41.5493C258.859 42.0089 258.546 42.4386 258.087 42.5131C258.042 42.5206 257.997 42.5231 257.953 42.5231Z" fill="#015C42"/>
<path d="M259.853 27.194C259.445 27.194 259.035 27.0673 258.702 26.8065C258.337 26.5208 258.273 25.9917 258.558 25.6265C258.844 25.2614 259.373 25.1968 259.738 25.4825C259.798 25.5297 259.954 25.5172 260.007 25.4601C260.32 25.1148 260.851 25.09 261.194 25.4005C261.539 25.7135 261.564 26.2451 261.254 26.5879C260.891 26.9879 260.372 27.1965 259.85 27.1965L259.853 27.194Z" fill="#015C42"/>
<path d="M260.389 37.9985C260.071 37.9985 259.766 37.8171 259.624 37.5091C259.597 37.452 259.542 37.3973 259.48 37.3749C259.418 37.3501 259.341 37.3501 259.281 37.3749C258.849 37.5513 258.36 37.3451 258.186 36.9129C258.009 36.4831 258.216 35.9913 258.648 35.8174C259.107 35.6286 259.637 35.6261 260.099 35.8075C260.561 35.9888 260.946 36.3515 261.154 36.8036C261.348 37.2259 261.164 37.7252 260.742 37.919C260.628 37.9711 260.509 37.996 260.389 37.996V37.9985Z" fill="#015C42"/>
<path d="M90.8293 12.2916C90.8193 13.1884 90.0368 14.0107 89.1401 14.0628C88.2433 14.115 87.3714 13.3896 87.2571 12.5003C88.3426 13.1536 89.8232 13.0692 90.8293 12.2916Z" fill="#015C42"/>
<path d="M99.2184 48.2428C97.9938 48.2428 96.7765 48.0167 95.6289 47.5671C93.6863 46.8044 91.9846 45.3934 90.8593 43.6322C88.5466 44.7277 85.8786 44.832 83.7224 43.8707C81.514 42.8869 79.8571 40.8375 79.3155 38.4975C78.0734 38.6465 76.7295 38.264 75.567 37.4045C74.854 36.8778 74.2653 36.2493 73.6964 35.6407C73.3287 35.2482 72.981 34.8756 72.6083 34.5378C72.0196 34.0037 70.8545 33.1367 69.682 33.3454C69.0833 33.4522 68.5244 33.8496 68.1891 34.4061C67.8587 34.9526 67.7394 35.6556 67.8587 36.3338C67.9108 36.6244 67.8065 36.9176 67.5854 37.1138C67.3643 37.3076 67.0588 37.3722 66.7781 37.2852C65.6751 36.9399 64.9323 36.3388 64.5697 35.4942C64.3809 35.0545 64.3088 34.5651 64.3511 34.0881C62.6122 33.9093 61.1962 33.3578 60.1355 32.4486C59.7827 32.1455 59.743 31.6164 60.0436 31.2637C60.9329 30.2203 61.6732 29.6365 62.5178 29.3111C63.0096 29.1223 63.5338 29.023 64.0579 29.0155C64.0182 28.3895 64.1399 27.8008 64.4181 27.294C64.905 26.4072 65.8714 25.7986 66.8824 25.7439C67.1358 25.724 67.3767 25.8284 67.5457 26.0147C67.7146 26.1985 67.7941 26.4494 67.7593 26.6978C67.6127 27.766 67.7991 28.6454 68.2959 29.2366C68.7753 29.8104 69.5702 30.1259 70.313 30.0539C71.1203 29.9694 71.9674 29.4527 72.899 28.469C73.1201 28.2355 73.3362 27.9945 73.5498 27.7511C74.1734 27.0481 74.8192 26.3227 75.6489 25.7563C76.6798 25.0508 77.8598 24.7701 78.8957 24.9366C79.4223 22.0053 81.1339 19.5832 83.5236 18.4803C85.8513 17.4046 88.713 17.6406 90.8767 18.9995C91.699 17.0643 93.4205 15.5266 95.5941 14.8485C98.0459 14.0834 100.617 14.4286 102.582 14.8137C102.96 14.8882 103.238 15.2087 103.26 15.5937C103.282 15.9788 103.039 16.3265 102.671 16.4433C101.121 16.9302 99.7078 18.1002 98.6918 19.7348C97.8397 21.106 97.2535 22.7629 96.8486 24.9465C96.6722 25.8905 96.5157 26.9959 96.6846 28.0368C96.8461 29.0428 97.3206 29.8899 97.9838 30.3569C98.3142 30.5905 98.431 31.0277 98.2621 31.3978C96.9032 34.3415 96.6076 37.3945 97.4299 39.9904C98.267 42.6311 100.269 44.9016 102.786 46.0592C103.096 46.2008 103.287 46.5163 103.275 46.8566C103.263 47.1969 103.044 47.495 102.726 47.6143C101.586 48.0341 100.398 48.2452 99.216 48.2452L99.2184 48.2428ZM91.1798 41.6672C91.2568 41.6672 91.3338 41.6772 91.4108 41.6995C91.6319 41.7616 91.8182 41.9132 91.925 42.1194C92.8367 43.8657 94.4116 45.2792 96.2449 45.9996C97.5069 46.4939 98.8682 46.6604 100.217 46.4989C98.1677 45.0308 96.5877 42.8969 95.8276 40.4972C94.9333 37.6752 95.1668 34.4235 96.4784 31.2786C95.7332 30.5383 95.2165 29.4875 95.0252 28.3051C94.8166 27.0083 94.9954 25.724 95.1966 24.6385C95.6413 22.2438 96.2996 20.403 97.2659 18.8479C97.949 17.7499 98.7887 16.8209 99.7327 16.1104C98.5428 16.0284 97.2858 16.0856 96.0959 16.4557C94.5035 16.9525 92.628 18.2915 92.1386 20.562C92.0765 20.8551 91.8604 21.0936 91.5747 21.1855C91.2891 21.2774 90.9761 21.2103 90.7525 21.0066C89.0285 19.4416 86.3456 19.0318 84.2316 20.008C82.1102 20.9868 80.657 23.3343 80.4384 26.1289C80.416 26.4171 80.2446 26.6755 79.9887 26.8096C79.7304 26.9437 79.4223 26.9338 79.1714 26.7872C78.4138 26.3401 77.3332 26.6456 76.5979 27.1474C75.9396 27.5971 75.3906 28.2156 74.8093 28.8689C74.5832 29.1248 74.3547 29.3807 74.1212 29.6266C72.9834 30.8265 71.873 31.5046 70.7328 31.6934C71.7364 31.8673 72.7698 32.4113 73.7411 33.2907C74.1659 33.6758 74.5534 34.0906 74.926 34.4906C75.4676 35.0694 75.9793 35.6159 76.5656 36.0481C77.3506 36.6269 78.5877 37.0989 79.703 36.6841C79.949 36.5921 80.2197 36.6195 80.4408 36.7586C80.6619 36.8977 80.806 37.1287 80.8333 37.3895C81.042 39.4886 82.4778 41.4735 84.4055 42.333C86.3133 43.1801 88.7453 42.9714 90.7525 41.7865C90.8842 41.7095 91.0307 41.6697 91.1798 41.6697V41.6672ZM61.9588 31.6735C62.868 32.1778 64.0455 32.4461 65.4739 32.4685C65.7745 32.4734 66.0477 32.6374 66.1943 32.8982C66.3409 33.1591 66.3384 33.4795 66.1868 33.7379C65.998 34.0583 65.9707 34.4856 66.1173 34.8284C66.1421 34.8855 66.1719 34.9402 66.2067 34.9924C66.3011 34.4732 66.4849 33.9763 66.7483 33.5366C67.332 32.5728 68.3182 31.8822 69.3864 31.6909C69.3914 31.6909 69.3963 31.6909 69.4013 31.6884C68.4772 31.527 67.6152 31.0451 67.0066 30.3197C66.4551 29.6614 66.1322 28.8342 66.0502 27.8803C65.9881 27.9498 65.9359 28.0243 65.8912 28.1038C65.6677 28.5112 65.6776 29.0801 65.9186 29.7061C66.0328 30.0067 65.9682 30.3445 65.7496 30.578C65.531 30.814 65.2006 30.9059 64.8926 30.8115C64.3138 30.6401 63.6853 30.6625 63.1214 30.8811C62.7413 31.0277 62.3712 31.2761 61.9588 31.6735Z" fill="#015C42"/>
<path d="M94.6774 43.1966C94.5781 43.1966 94.4787 43.1792 94.3843 43.1444C92.8267 42.5631 91.5077 41.408 90.7053 39.9598C88.8347 41.1223 86.6785 41.2888 84.8775 40.3622C83.1436 39.4704 81.976 37.6495 81.822 35.7193C78.8982 35.697 76.0861 34.214 74.6205 31.8491C74.4242 31.5336 74.459 31.1262 74.705 30.8479C76.5532 28.7613 79.1093 27.6608 81.6009 27.8223C81.3749 25.2363 82.6343 22.8416 84.8601 21.8529C86.8946 20.9511 89.4111 21.4529 91.0357 22.9409C91.8629 21.5722 93.0155 20.6431 94.3694 20.2754C94.6874 20.191 95.0252 20.2978 95.2364 20.5487C95.4475 20.8021 95.4897 21.1548 95.3482 21.4504C94.2079 23.8203 93.7409 26.4535 93.9918 29.0693C94.0365 29.5314 93.6962 29.9437 93.2341 29.9884C92.7671 30.0282 92.3597 29.6928 92.315 29.2308C92.1213 27.2087 92.31 25.1767 92.869 23.239C92.5286 23.6663 92.2355 24.1805 91.9995 24.7693C91.8828 25.0624 91.6095 25.2661 91.294 25.2934C90.9785 25.3207 90.6755 25.1692 90.5066 24.9034C89.5179 23.3285 87.2424 22.6354 85.5433 23.3881C83.7323 24.1905 82.8504 26.3839 83.4442 28.6023C83.5212 28.888 83.4417 29.1935 83.2355 29.4071C83.0293 29.6208 82.7262 29.7077 82.4381 29.6407C80.3787 29.1513 78.1256 29.8568 76.424 31.4864C77.8052 33.2427 80.1999 34.2413 82.5871 33.9978C82.838 33.9705 83.0889 34.0624 83.2653 34.2413C83.4442 34.4201 83.5336 34.6686 83.5063 34.9195C83.3473 36.4845 84.2465 38.1414 85.6451 38.8593C87.1207 39.6194 88.9838 39.299 90.5041 38.0246C90.7152 37.8483 90.9984 37.7837 91.2642 37.8582C91.53 37.9302 91.7437 38.1265 91.8356 38.3848C92.0567 38.9984 92.3945 39.5648 92.8193 40.0542C92.2206 38.129 91.9772 36.0845 92.1312 34.0897C92.166 33.6252 92.5659 33.2749 93.0329 33.3147C93.4975 33.3495 93.8428 33.7544 93.808 34.2164C93.6068 36.8596 94.1781 39.607 95.4227 41.952C95.5866 42.2601 95.5419 42.6377 95.3109 42.901C95.1494 43.0873 94.9159 43.1867 94.6774 43.1867V43.1966Z" fill="#015C42"/>
<path d="M87.4537 38.1818C86.9271 38.1818 86.4626 37.9608 86.1893 37.5459C85.8391 37.0118 85.9732 36.3982 86.0229 36.1672L86.0527 36.0355C86.1843 35.4369 86.3259 34.786 86.6389 34.0582C85.0193 33.8197 83.4443 33.1241 82.3116 32.1181C82.1426 31.9665 82.0408 31.7554 82.0309 31.5293C82.0209 31.3033 82.1004 31.0822 82.2544 30.9157C83.3276 29.7631 84.823 29.0626 86.4203 28.9135C86.0899 28.29 85.8962 27.5944 85.8664 26.8815C85.8291 25.9897 86.2092 25.5525 86.5321 25.3438C86.8402 25.1451 87.3718 24.9861 88.1468 25.3388C89.677 26.0344 90.857 27.5448 91.3066 29.3731C91.6644 30.8338 91.5849 32.4882 91.0682 34.2917C90.5142 36.2318 89.5727 37.4838 88.2735 38.0129C87.9953 38.1272 87.7146 38.1818 87.4513 38.1818H87.4537ZM88.0027 32.4658C88.3108 32.4658 88.5915 32.6323 88.7405 32.903C88.8921 33.1763 88.8772 33.5117 88.7033 33.7725C88.0549 34.7488 87.881 35.5487 87.6972 36.3933L87.6872 36.433C88.6486 36.0107 89.1753 34.7885 89.451 33.8296C89.8857 32.3118 89.9602 30.9455 89.6721 29.7755C89.3566 28.4862 88.5691 27.428 87.5531 26.9212C87.6227 27.7957 88.0946 28.6527 88.7977 29.1744C89.1131 29.4103 89.2249 29.8326 89.0635 30.1928C88.902 30.553 88.5169 30.7567 88.1269 30.6723C86.7284 30.3866 85.3 30.6773 84.2095 31.4324C85.295 32.0982 86.6886 32.4907 87.9853 32.4633H88.0002L88.0027 32.4658Z" fill="#015C42"/>
<path d="M90.8293 50.231C90.8193 49.3342 90.0368 48.512 89.1401 48.4598C88.2433 48.4076 87.3714 49.133 87.2571 50.0223C88.3426 49.369 89.8232 49.4535 90.8293 50.231Z" fill="#015C42"/>
<path d="M48.0072 37.5061C47.0906 37.5061 46.1838 37.3198 45.3641 36.9422C43.4016 36.0405 42.0378 34.1078 41.8937 32.0162C41.7497 29.927 42.6862 27.1597 45.8013 26.2257C47.5675 25.6965 49.3785 25.7462 50.9012 26.3648C52.6451 27.0752 53.9791 28.5682 54.3815 30.2649C54.9479 32.6372 53.671 35.3151 51.3484 36.6317C50.3249 37.2105 49.1623 37.5061 48.0122 37.5061H48.0072ZM48.2283 27.5447C47.5948 27.5447 46.9365 27.6441 46.2807 27.8404C44.117 28.4887 43.4687 30.4338 43.5705 31.9044C43.6724 33.3676 44.6735 34.7786 46.0646 35.417C47.4334 36.0455 49.1375 35.9511 50.5137 35.1711C52.1731 34.2296 53.1295 32.2895 52.7395 30.6574C52.4588 29.4799 51.5098 28.4341 50.2603 27.9248C49.6393 27.6714 48.9462 27.5447 48.2258 27.5447H48.2283Z" fill="#015C42"/>
<path d="M47.9918 22.4616C47.9495 22.4616 47.9073 22.4616 47.8626 22.4591C46.5982 22.4069 45.3834 21.5648 44.5363 20.1514C44.2482 19.6719 44.0196 19.1776 43.7961 18.6981C43.5427 18.1516 43.3042 17.6349 42.9962 17.1753C42.4422 16.3456 41.6224 15.7917 40.9045 15.7619C40.5418 15.747 40.2288 15.501 40.1295 15.1508C40.0301 14.8005 40.1667 14.4279 40.4698 14.2242C41.4883 13.5386 42.8123 13.3224 44.1066 13.6255C44.581 13.7373 45.0282 13.9137 45.4331 14.1472C45.6219 12.8629 46.2305 11.6432 47.1869 10.7414C47.3658 10.57 47.6142 10.488 47.8601 10.5179C48.106 10.5452 48.3271 10.6793 48.4662 10.8855C49.0699 11.7897 49.5145 12.8679 49.8151 14.1546C51.3801 13.0989 53.5438 12.92 55.2057 13.8714C55.5162 14.0503 55.6802 14.4055 55.6156 14.7558C55.5485 15.1085 55.2678 15.3793 54.9151 15.434C53.9065 15.5855 53.206 16.6785 52.9526 17.1406C52.729 17.548 52.5427 17.9777 52.344 18.4348C52.0757 19.0534 51.7975 19.6943 51.4099 20.3004C50.543 21.6617 49.2761 22.4616 47.9992 22.4616H47.9918ZM43.5154 15.2228C43.8681 15.5433 44.1662 15.8985 44.3972 16.2413C44.7773 16.8077 45.0555 17.4089 45.3238 17.9901C45.5374 18.4497 45.7387 18.8844 45.9796 19.2844C46.5236 20.1911 47.2565 20.75 47.9371 20.7774C48.7619 20.8121 49.5468 20.0868 49.9865 19.3962C50.302 18.9018 50.543 18.3479 50.7964 17.7616C51.0025 17.2896 51.2137 16.8027 51.4745 16.3283C51.7726 15.7867 52.113 15.3222 52.4905 14.9421C51.4919 15.0241 50.5181 15.5184 49.9542 16.3307C49.7555 16.6164 49.4028 16.7506 49.0624 16.6711C48.7246 16.5891 48.4712 16.3059 48.4265 15.9606C48.2725 14.7657 48.0067 13.7323 47.6316 12.8703C47.095 13.8044 46.9087 14.9545 47.1745 15.9929C47.2788 16.4028 47.0652 16.8251 46.6727 16.9816C46.2802 17.1381 45.8355 16.9816 45.6269 16.6139C45.2542 15.9532 44.5587 15.4588 43.7191 15.2626C43.652 15.2477 43.5824 15.2328 43.5154 15.2203V15.2228Z" fill="#015C42"/>
<path d="M47.7643 52.8256C47.5506 52.8256 47.3444 52.7437 47.1854 52.5971C46.2315 51.6954 45.6204 50.4756 45.4316 49.1913C45.0267 49.4224 44.5796 49.6012 44.1051 49.713C42.8134 50.0186 41.4868 49.8 40.4683 49.1143C40.1653 48.9106 40.0286 48.538 40.128 48.1878C40.2274 47.8375 40.5404 47.5916 40.9031 47.5767C41.621 47.5468 42.4407 46.9929 42.9947 46.1632C43.3027 45.7036 43.5412 45.1869 43.7946 44.6404C44.0182 44.161 44.2467 43.6666 44.5349 43.1872C45.3844 41.7737 46.5967 40.9316 47.8611 40.8794C49.1901 40.8148 50.5067 41.6321 51.401 43.0381C51.7861 43.6443 52.0643 44.2852 52.3351 44.9037C52.5338 45.3608 52.7201 45.793 52.9437 46.198C53.1971 46.66 53.8976 47.753 54.9062 47.9046C55.2614 47.9592 55.5421 48.23 55.6067 48.5827C55.6737 48.9355 55.5073 49.2907 55.1968 49.4671C53.5374 50.4185 51.3712 50.2397 49.8062 49.1839C49.5056 50.4707 49.061 51.5488 48.4573 52.453C48.3207 52.6592 48.0996 52.7933 47.8512 52.8232C47.8189 52.8256 47.7891 52.8281 47.7568 52.8281L47.7643 52.8256ZM46.3607 46.2948C46.465 46.2948 46.5719 46.3147 46.6737 46.3545C47.0662 46.511 47.2798 46.9357 47.1755 47.3431C46.9097 48.3815 47.0935 49.5317 47.6326 50.4657C48.0077 49.6037 48.2735 48.5703 48.4275 47.3754C48.4722 47.0301 48.7256 46.747 49.0635 46.665C49.4038 46.5805 49.7565 46.7171 49.9553 47.0053C50.5167 47.8176 51.4929 48.312 52.4916 48.3939C52.1165 48.0139 51.7737 47.5468 51.4756 47.0078C51.2147 46.5333 51.0036 46.0439 50.7974 45.5744C50.544 44.9882 50.303 44.4367 49.9876 43.9399C49.5479 43.2493 48.7629 42.5115 47.9381 42.5587C47.2575 42.5885 46.5271 43.145 45.9806 44.0517C45.7397 44.4541 45.5385 44.8863 45.3248 45.3459C45.0565 45.9272 44.7758 46.5259 44.3982 47.0947C44.1697 47.44 43.8716 47.7928 43.5164 48.1132C43.5834 48.1008 43.653 48.0884 43.7201 48.071C44.5572 47.8723 45.2528 47.3804 45.6279 46.7196C45.7819 46.4489 46.0651 46.2924 46.3607 46.2924V46.2948Z" fill="#015C42"/>
<path d="M74.153 22.8433C73.8549 22.8433 73.5543 22.7936 73.2711 22.6918C72.3917 22.3763 71.7185 21.5764 71.5546 20.6573C71.4726 20.2002 71.7781 19.763 72.2377 19.681C72.6973 19.6015 73.132 19.9046 73.214 20.3641C73.2711 20.6895 73.5294 20.9976 73.8424 21.1094C74.1554 21.2212 74.5479 21.1491 74.8013 20.9355C75.1541 20.6349 75.6857 20.6771 75.9863 21.0324C76.2868 21.3876 76.2446 21.9167 75.8894 22.2173C75.4075 22.6272 74.779 22.8458 74.153 22.8458V22.8433Z" fill="#015C42"/>
<path d="M72.4039 42.5231C72.3592 42.5231 72.3145 42.5206 72.2698 42.5131C71.8102 42.4411 71.4972 42.0089 71.5718 41.5493C71.7233 40.6004 72.399 39.7582 73.2908 39.403C74.1826 39.0478 75.2508 39.1968 76.0134 39.7831C76.3811 40.0663 76.4506 40.5954 76.1674 40.963C75.8842 41.3307 75.3551 41.4002 74.9875 41.1171C74.6918 40.8885 74.2596 40.8289 73.9118 40.968C73.564 41.1071 73.2908 41.4474 73.2312 41.8151C73.1641 42.2299 72.8089 42.5231 72.4015 42.5231H72.4039Z" fill="#015C42"/>
<path d="M70.5042 27.1938C69.985 27.1938 69.4658 26.9877 69.1031 26.5852C68.7901 26.2399 68.8175 25.7083 69.1628 25.3978C69.5081 25.0848 70.0397 25.1121 70.3502 25.4574C70.4023 25.5146 70.5588 25.527 70.6185 25.4798C70.9836 25.1941 71.5128 25.2587 71.8009 25.6239C72.0866 25.989 72.022 26.5182 71.6568 26.8063C71.3215 27.0672 70.9141 27.1963 70.5067 27.1963L70.5042 27.1938Z" fill="#015C42"/>
<path d="M69.968 37.9977C69.8487 37.9977 69.7295 37.9728 69.6152 37.9207C69.1929 37.7244 69.0091 37.2251 69.2053 36.8028C69.414 36.3532 69.799 35.9905 70.2586 35.8092C70.7207 35.6278 71.2498 35.6303 71.7093 35.8191C72.1391 35.9955 72.3453 36.4849 72.1714 36.9146C71.995 37.3444 71.5032 37.553 71.0759 37.3767C71.0163 37.3518 70.9368 37.3518 70.8772 37.3767C70.8175 37.399 70.7604 37.4537 70.7331 37.5133C70.5915 37.8213 70.2859 38.0002 69.9704 38.0002L69.968 37.9977Z" fill="#015C42"/>
<path opacity="0.3" d="M5.42371 38.1817C4.89707 38.1817 4.43253 37.9606 4.15928 37.5458C3.80902 37.0117 3.94316 36.3981 3.99284 36.1671L4.02265 36.0354C4.15431 35.4367 4.29591 34.7859 4.60891 34.058C2.98925 33.8196 1.41431 33.124 0.281538 32.1179C0.112617 31.9664 0.0107672 31.7552 0.00083062 31.5292C-0.00910594 31.3031 0.0703865 31.082 0.224403 30.9156C1.29755 29.763 2.793 29.0624 4.3903 28.9134C4.05991 28.2899 3.86615 27.5943 3.83634 26.8814C3.79908 25.9896 4.17915 25.5524 4.50209 25.3437C4.81012 25.145 5.34173 24.986 6.11678 25.3387C7.64701 26.0343 8.82698 27.5446 9.27661 29.373C9.63432 30.8336 9.55483 32.4881 9.03813 34.2916C8.48417 36.2317 7.54268 37.4837 6.24347 38.0128C5.96525 38.1271 5.68454 38.1817 5.42122 38.1817H5.42371ZM5.97519 32.4657C6.28322 32.4657 6.56393 32.6322 6.71298 32.9029C6.86451 33.1762 6.8496 33.5115 6.67571 33.7724C6.02735 34.7486 5.85346 35.5485 5.66964 36.3931L5.6597 36.4329C6.62106 36.0106 7.1477 34.7884 7.42344 33.8295C7.85816 32.3117 7.93269 30.9454 7.64453 29.7754C7.32904 28.4861 6.54157 27.4279 5.52556 26.9211C5.59511 27.7955 6.0671 28.6526 6.77011 29.1742C7.0856 29.4102 7.19738 29.8325 7.03591 30.1927C6.87444 30.5529 6.4894 30.7566 6.09939 30.6722C4.70082 30.3865 3.27244 30.6771 2.1819 31.4323C3.26747 32.0981 4.66108 32.4906 5.9578 32.4632H5.9727L5.97519 32.4657Z" fill="#8CB1A6"/>
<path d="M11.1971 44.3619C10.8095 44.3619 10.4618 44.0936 10.3748 43.7011C10.2755 43.2465 10.5636 42.7994 11.0157 42.7C13.5123 42.1535 15.4449 39.9675 15.7182 37.384C15.7455 37.1281 15.8871 36.8995 16.1057 36.7604C16.3218 36.6213 16.5901 36.5915 16.8336 36.676C18.6246 37.302 19.7798 36.2959 21.464 34.5669C22.1372 33.8764 22.8328 33.1609 23.6227 32.6392C25.2498 31.5661 27.2496 31.4866 28.7152 32.443C29.5996 33.0193 30.1585 33.8788 30.3523 34.9098C30.3796 34.865 30.4019 34.8178 30.4218 34.7706C30.5684 34.4303 30.5435 34.0701 30.3473 33.6975C30.2107 33.4391 30.2181 33.1261 30.3672 32.8752C30.5162 32.6219 30.787 32.4678 31.0801 32.4629C32.4911 32.4455 33.6661 32.1797 34.5852 31.668C33.6462 30.8084 32.66 30.5203 31.6465 30.8109C31.336 30.9004 31.0031 30.8035 30.7895 30.565C30.5734 30.324 30.5162 29.9837 30.6355 29.6856C30.869 29.1118 30.8441 28.4733 30.5684 28.0237C30.5386 27.974 30.5088 27.9293 30.474 27.8871C30.315 29.2012 29.6542 30.334 28.6059 31.0097C27.1999 31.9164 25.4088 31.8493 23.809 30.8283C23.0638 30.3538 22.4005 29.6285 21.6975 28.8609C20.0182 27.0276 18.8855 25.9743 17.3478 26.799C17.0969 26.9332 16.7963 26.9332 16.5454 26.7966C16.297 26.6599 16.1331 26.4065 16.1107 26.1234C15.8946 23.366 14.1805 20.1391 10.9337 19.5727C10.4767 19.4932 10.1686 19.056 10.2481 18.5989C10.3276 18.1418 10.7599 17.8387 11.2219 17.9158C14.9183 18.5591 17.0422 21.8059 17.6409 24.9061C19.8965 24.4143 21.628 26.2972 22.9371 27.7256C23.5631 28.4088 24.1543 29.0522 24.7133 29.4099C25.7417 30.0657 26.8571 30.1352 27.6918 29.5962C28.5587 29.0372 28.9661 27.9542 28.7873 26.6997C28.75 26.4438 28.832 26.1879 29.0108 26.0016C29.1872 25.8153 29.4431 25.7184 29.6965 25.7433C30.6901 25.8352 31.5099 26.3345 32.0042 27.1493C32.3396 27.7008 32.4986 28.3541 32.4737 29.0223C33.9195 29.0497 35.3205 29.8198 36.5129 31.273C36.8036 31.6282 36.7564 32.1524 36.4061 32.4505C35.3255 33.3646 33.9071 33.9136 32.1856 34.09C32.2253 34.5496 32.1508 35.0091 31.9645 35.4438C31.5844 36.3232 30.7522 37.0163 29.7387 37.292C29.4605 37.3666 29.1648 37.297 28.9512 37.1057C28.7376 36.912 28.6382 36.6263 28.6854 36.3431C28.8717 35.2377 28.5537 34.3558 27.7936 33.859C26.9018 33.2802 25.5976 33.3547 24.5443 34.0502C23.9059 34.4725 23.3023 35.0911 22.6639 35.7469C21.2976 37.148 19.6332 38.8546 17.2286 38.5068C16.5529 41.3785 14.2575 43.7135 11.371 44.347C11.3113 44.3594 11.2492 44.3669 11.1896 44.3669L11.1971 44.3619Z" fill="#8CB1A6"/>
<path opacity="0.5" d="M11.2937 40.4547C10.9906 40.4547 10.6975 40.2908 10.5484 40.0051C10.3323 39.5927 10.4913 39.086 10.9037 38.8698C12.3221 38.1271 13.204 36.5024 13.05 34.9225C13.0251 34.6716 13.1145 34.4232 13.2909 34.2468C13.4673 34.068 13.7157 33.9786 13.9666 34.0034C15.1913 34.1226 18.3884 33.5463 19.7174 32.4135C20.0652 32.1179 20.244 31.8273 20.2639 31.5267C20.2689 31.4497 20.2838 31.2187 19.8962 30.8908C18.6293 29.8176 15.1963 29.3928 14.1157 29.6462C13.8275 29.7133 13.5269 29.6239 13.3207 29.4127C13.1145 29.2016 13.0351 28.896 13.1121 28.6103C13.6014 26.7621 13.0326 24.3053 11.008 23.3912C10.5857 23.1999 10.3969 22.703 10.5857 22.2783C10.777 21.8535 11.2763 21.6672 11.6986 21.856C13.8921 22.8446 15.164 25.3139 14.9379 27.8924C16.7712 27.885 19.5659 28.4041 20.9818 29.604C21.8364 30.3269 21.9755 31.1069 21.9407 31.631C21.891 32.3986 21.5085 33.0917 20.8054 33.6929C19.2777 34.9921 16.4781 35.5982 14.7292 35.6852C14.5802 37.6129 13.4126 39.4486 11.6812 40.3578C11.557 40.4224 11.4228 40.4547 11.2912 40.4547H11.2937Z" fill="#8CB1A6"/>
<path d="M16.6617 55.5527C16.3289 55.5527 16.0134 55.354 15.8817 55.0236C15.7078 54.5938 15.9165 54.102 16.3487 53.9306C17.9162 53.2996 19.2602 52.1569 20.1321 50.7111C21.004 49.2653 21.3866 47.5413 21.2127 45.8621C21.1804 45.564 21.3121 45.2708 21.5555 45.0945C21.7989 44.9181 22.1169 44.8833 22.3927 45.005C24.0744 45.7528 26.3822 45.8025 28.7247 45.1392C33.1862 43.8772 36.8901 40.1808 38.1595 35.7218C39.4314 31.2628 38.2315 26.1678 35.104 22.7447C31.9765 19.3215 27.0082 17.6671 22.4572 18.5266C22.189 18.5763 21.9132 18.4943 21.717 18.3055C21.5207 18.1167 21.4288 17.841 21.471 17.5727C21.7766 15.5953 21.6102 13.9409 20.9568 12.5175C20.3085 11.1015 19.1931 9.91906 17.8144 9.18624C17.4045 8.96764 17.248 8.45839 17.4666 8.04851C17.6852 7.63862 18.1945 7.48212 18.6043 7.70073C20.306 8.60247 21.6847 10.0656 22.4871 11.8169C23.1478 13.2627 23.4062 14.8724 23.2646 16.7082C28.059 16.1865 33.0918 18.0447 36.3486 21.6119C39.8611 25.4574 41.2075 31.1783 39.7792 36.1839C38.3533 41.1919 34.1923 45.3429 29.1818 46.7588C26.9809 47.3799 24.7725 47.447 22.9317 46.9675C22.8795 48.5872 22.4125 50.187 21.5729 51.5781C20.5146 53.3368 18.8801 54.7255 16.9772 55.4906C16.8754 55.5328 16.7686 55.5527 16.6642 55.5527H16.6617Z" fill="#8CB1A6"/>
<path opacity="0.6" d="M22.4007 22.8438C21.7722 22.8438 21.1462 22.6252 20.6643 22.2153C20.3091 21.9148 20.2668 21.3831 20.5674 21.0304C20.868 20.6777 21.3996 20.6329 21.7523 20.9335C22.0057 21.1496 22.3982 21.2217 22.7112 21.1074C23.0217 20.9956 23.2801 20.6901 23.3397 20.3622C23.4217 19.9051 23.8539 19.5995 24.316 19.6815C24.7731 19.7635 25.0786 20.1982 24.9966 20.6578C24.8327 21.5769 24.1595 22.3768 23.2801 22.6923C22.9969 22.7941 22.6963 22.8438 22.3982 22.8438H22.4007Z" fill="#8CB1A6"/>
<path opacity="0.6" d="M24.1523 42.523C23.7449 42.523 23.3897 42.2273 23.3226 41.815C23.263 41.4448 22.9898 41.1045 22.642 40.9679C22.2942 40.8288 21.862 40.8909 21.5663 41.1169C21.1987 41.4001 20.6696 41.3306 20.3864 40.9629C20.1032 40.5953 20.1727 40.0661 20.5404 39.7829C21.303 39.1967 22.3712 39.0476 23.2655 39.4029C24.1573 39.7581 24.833 40.6002 24.9845 41.5492C25.059 42.0087 24.746 42.4385 24.2865 42.513C24.2418 42.5205 24.1971 42.523 24.1523 42.523Z" fill="#8CB1A6"/>
<path opacity="0.6" d="M26.0525 27.1939C25.6451 27.1939 25.2352 27.0672 24.9023 26.8064C24.5372 26.5207 24.4726 25.9916 24.7583 25.6264C25.0464 25.2613 25.5731 25.1967 25.9382 25.4823C25.9978 25.5295 26.1543 25.5171 26.2065 25.46C26.5195 25.1147 27.0511 25.0898 27.3939 25.4004C27.7392 25.7134 27.7641 26.245 27.4536 26.5878C27.0909 26.9877 26.5717 27.1964 26.05 27.1964L26.0525 27.1939Z" fill="#8CB1A6"/>
<path opacity="0.6" d="M26.5883 37.9983C26.2704 37.9983 25.9673 37.817 25.8257 37.5115C25.7984 37.4518 25.7412 37.3997 25.6816 37.3748C25.622 37.35 25.5425 37.35 25.4829 37.3748C25.0506 37.5487 24.5613 37.345 24.3849 36.9153C24.2085 36.4855 24.4147 35.9936 24.8445 35.8173C25.304 35.6285 25.8331 35.626 26.2952 35.8073C26.7572 35.9887 27.1423 36.3514 27.351 36.801C27.5472 37.2233 27.3634 37.7226 26.9411 37.9189C26.8268 37.971 26.7051 37.9959 26.5883 37.9959V37.9983Z" fill="#8CB1A6"/>
<path d="M282.347 37.5061C281.197 37.5061 280.032 37.213 279.011 36.6317C276.688 35.3127 275.411 32.6372 275.978 30.2649C276.382 28.5682 277.716 27.0752 279.458 26.3648C280.978 25.7462 282.792 25.6965 284.558 26.2257C287.472 27.1001 288.619 29.7631 288.463 32.0162C288.319 34.1078 286.955 36.0405 284.993 36.9422C284.173 37.3198 283.264 37.5061 282.349 37.5061H282.347ZM282.126 27.5447C281.403 27.5447 280.712 27.6714 280.091 27.9248C278.842 28.4341 277.893 29.4799 277.612 30.6574C277.225 32.2895 278.181 34.2296 279.838 35.1711C281.214 35.9511 282.918 36.0455 284.287 35.417C285.678 34.7786 286.679 33.3676 286.781 31.9044C286.883 30.4363 286.235 28.4912 284.071 27.8428C283.415 27.6466 282.757 27.5497 282.123 27.5497L282.126 27.5447Z" fill="#015C42"/>
<path d="M282.362 22.4617C281.085 22.4617 279.816 21.6618 278.951 20.3005C278.566 19.6944 278.288 19.0535 278.02 18.4349C277.821 17.9779 277.634 17.5456 277.411 17.1407C277.158 16.6787 276.457 15.5856 275.448 15.4341C275.093 15.3794 274.812 15.1087 274.748 14.7559C274.681 14.4032 274.847 14.0479 275.158 13.8716C276.817 12.9201 278.983 13.099 280.548 14.1548C280.849 12.868 281.294 11.7899 281.897 10.8856C282.034 10.6795 282.255 10.5453 282.503 10.518C282.749 10.4907 282.995 10.5726 283.177 10.7416C284.13 11.6433 284.742 12.863 284.93 14.1473C285.335 13.9163 285.782 13.7374 286.257 13.6256C287.549 13.3226 288.875 13.5387 289.894 14.2243C290.197 14.428 290.333 14.8006 290.234 15.1509C290.135 15.5012 289.822 15.7471 289.459 15.762C288.741 15.7918 287.919 16.3458 287.367 17.1755C287.062 17.635 286.821 18.1517 286.567 18.6983C286.344 19.1777 286.115 19.6745 285.827 20.1515C284.978 21.565 283.765 22.4071 282.498 22.4592C282.456 22.4592 282.414 22.4617 282.369 22.4617H282.362ZM277.868 14.9422C278.243 15.3223 278.586 15.7868 278.884 16.3284C279.145 16.8029 279.358 17.2922 279.562 17.7642C279.816 18.348 280.056 18.902 280.372 19.3963C280.812 20.0869 281.587 20.8147 282.421 20.7775C283.102 20.7477 283.832 20.1912 284.379 19.2845C284.62 18.8821 284.821 18.4474 285.035 17.9878C285.303 17.4065 285.581 16.8078 285.961 16.2414C286.192 15.8961 286.488 15.5434 286.843 15.2229C286.776 15.2354 286.707 15.2478 286.639 15.2652C285.8 15.4639 285.107 15.9558 284.732 16.6165C284.523 16.9842 284.076 17.1407 283.686 16.9842C283.293 16.8277 283.08 16.4054 283.184 15.9955C283.45 14.9571 283.266 13.807 282.727 12.8729C282.352 13.7349 282.086 14.7683 281.932 15.9632C281.887 16.3085 281.634 16.5917 281.296 16.6737C280.956 16.7557 280.603 16.6215 280.404 16.3334C279.843 15.5186 278.867 15.0267 277.87 14.9447L277.868 14.9422Z" fill="#015C42"/>
<path d="M282.59 52.8247C282.558 52.8247 282.528 52.8247 282.496 52.8197C282.25 52.7924 282.029 52.6583 281.89 52.4496C281.286 51.5454 280.841 50.4673 280.541 49.1805C278.976 50.2362 276.812 50.4151 275.15 49.4637C274.84 49.2848 274.676 48.9296 274.74 48.5793C274.807 48.2266 275.088 47.9558 275.441 47.9011C276.449 47.7496 277.15 46.6566 277.403 46.1945C277.627 45.7871 277.816 45.3574 278.012 44.9003C278.28 44.2817 278.558 43.6408 278.943 43.0347C279.838 41.6262 281.154 40.8015 282.483 40.876C283.75 40.9282 284.962 41.7703 285.812 43.1838C286.1 43.6632 286.331 44.1575 286.552 44.637C286.806 45.1835 287.044 45.7002 287.352 46.1598C287.906 46.9895 288.726 47.5434 289.444 47.5732C289.807 47.5881 290.12 47.8341 290.219 48.1843C290.318 48.5346 290.182 48.9072 289.879 49.1109C288.86 49.7965 287.536 50.0127 286.242 49.7096C285.767 49.5978 285.32 49.4214 284.915 49.1879C284.726 50.4722 284.118 51.6919 283.161 52.5937C283.005 52.7427 282.796 52.8222 282.583 52.8222L282.59 52.8247ZM281.095 46.6417C281.159 46.6417 281.226 46.6491 281.293 46.6665C281.631 46.7485 281.885 47.0317 281.929 47.377C282.083 48.5719 282.349 49.6053 282.724 50.4673C283.261 49.5332 283.447 48.3831 283.181 47.3447C283.077 46.9348 283.291 46.5125 283.683 46.356C284.076 46.1995 284.523 46.356 284.729 46.7237C285.102 47.3844 285.797 47.8788 286.637 48.075C286.704 48.0899 286.773 48.1048 286.84 48.1173C286.488 47.7968 286.19 47.4416 285.959 47.0988C285.581 46.5324 285.303 45.9312 285.032 45.3524C284.818 44.8928 284.617 44.4581 284.376 44.0557C283.832 43.149 283.099 42.59 282.419 42.5627C281.582 42.513 280.809 43.2533 280.369 43.9439C280.054 44.4382 279.815 44.9922 279.559 45.576C279.353 46.048 279.142 46.5373 278.881 47.0118C278.583 47.5534 278.243 48.0179 277.865 48.398C278.864 48.316 279.838 47.8216 280.399 47.0093C280.558 46.7783 280.819 46.6466 281.092 46.6466L281.095 46.6417Z" fill="#015C42"/>
<path d="M318.753 44.3619C318.693 44.3619 318.634 44.3569 318.571 44.342C315.687 43.711 313.39 41.3759 312.714 38.5018C310.304 38.8496 308.645 37.1454 307.279 35.7419C306.64 35.0861 306.037 34.4675 305.396 34.0452C304.342 33.3497 303.038 33.2752 302.146 33.854C301.384 34.3508 301.068 35.2327 301.255 36.3381C301.302 36.6213 301.202 36.9095 300.989 37.1007C300.778 37.2945 300.479 37.364 300.201 37.287C299.188 37.0113 298.358 36.3182 297.975 35.4388C297.787 35.0041 297.715 34.5445 297.754 34.085C296.03 33.9111 294.614 33.3621 293.534 32.4455C293.184 32.1474 293.134 31.6257 293.427 31.2705C294.619 29.8172 296.018 29.0471 297.466 29.0198C297.441 28.3516 297.6 27.6983 297.936 27.1468C298.43 26.332 299.252 25.8327 300.244 25.7408C300.499 25.7159 300.753 25.8128 300.929 25.9991C301.106 26.1854 301.19 26.4438 301.153 26.6972C300.971 27.9516 301.381 29.0322 302.248 29.5937C303.085 30.1352 304.198 30.0656 305.227 29.4073C305.786 29.0496 306.377 28.4062 307.003 27.7231C308.312 26.2947 310.041 24.4018 312.299 24.9036C312.895 21.8034 315.022 18.5591 318.718 17.9132C319.18 17.8387 319.612 18.1418 319.692 18.5964C319.771 19.0535 319.466 19.4907 319.006 19.5702C315.757 20.1365 314.045 23.3634 313.829 26.1208C313.807 26.404 313.643 26.6574 313.395 26.794C313.146 26.9307 312.843 26.9307 312.595 26.7965C311.057 25.9693 309.924 27.0226 308.245 28.8584C307.542 29.626 306.879 30.3488 306.133 30.8233C304.534 31.8418 302.743 31.9114 301.337 31.0046C300.288 30.329 299.63 29.1937 299.468 27.8821C299.434 27.9243 299.404 27.9715 299.374 28.0187C299.098 28.4708 299.073 29.1068 299.307 29.6831C299.429 29.9812 299.369 30.3215 299.153 30.5625C298.937 30.801 298.604 30.8978 298.296 30.8084C297.282 30.5153 296.296 30.8084 295.357 31.6654C296.279 32.1772 297.454 32.443 298.865 32.4604C299.158 32.4628 299.429 32.6193 299.578 32.8727C299.727 33.1261 299.734 33.4366 299.598 33.695C299.401 34.0676 299.377 34.4278 299.523 34.7681C299.543 34.8153 299.568 34.8625 299.593 34.9072C299.784 33.8763 300.343 33.0168 301.227 32.4405C302.695 31.4866 304.695 31.5611 306.32 32.6367C307.11 33.1584 307.805 33.8713 308.481 34.5644C310.165 36.2934 311.32 37.2995 313.111 36.6735C313.355 36.589 313.623 36.6188 313.839 36.7579C314.055 36.8945 314.199 37.1256 314.227 37.3814C314.5 39.9649 316.435 42.151 318.929 42.6975C319.384 42.7969 319.669 43.2465 319.57 43.6986C319.483 44.0911 319.135 44.3594 318.748 44.3594L318.753 44.3619Z" fill="#8CB1A6"/>
<path opacity="0.3" d="M325.237 38.1809C324.973 38.1809 324.695 38.1263 324.415 38.012C323.115 37.4829 322.174 36.2309 321.62 34.2908C321.103 32.4873 321.024 30.8328 321.384 29.3722C321.834 27.5438 323.013 26.0335 324.544 25.3379C325.319 24.9852 325.848 25.1467 326.156 25.3429C326.481 25.5516 326.861 25.9888 326.824 26.8806C326.794 27.591 326.601 28.2866 326.27 28.9101C327.865 29.0592 329.363 29.7597 330.434 30.9123C330.588 31.0788 330.67 31.2999 330.657 31.5259C330.647 31.752 330.545 31.9631 330.376 32.1147C329.244 33.1207 327.669 33.8163 326.049 34.0548C326.362 34.7801 326.504 35.4335 326.635 36.0322L326.665 36.1638C326.717 36.3948 326.851 37.0109 326.499 37.5425C326.228 37.9574 325.763 38.1785 325.237 38.1785V38.1809ZM325.135 26.9203C324.121 27.4271 323.334 28.4853 323.018 29.7746C322.73 30.9471 322.805 32.3109 323.24 33.8287C323.513 34.7876 324.042 36.0098 325.001 36.4321L324.993 36.3924C324.81 35.5453 324.633 34.7479 323.987 33.7716C323.813 33.5108 323.801 33.1754 323.95 32.9021C324.102 32.6289 324.385 32.4649 324.703 32.4649C326.004 32.4898 327.393 32.0973 328.479 31.434C327.388 30.6763 325.96 30.3882 324.561 30.6739C324.174 30.7558 323.786 30.5521 323.625 30.1919C323.463 29.8317 323.575 29.4094 323.89 29.1734C324.596 28.6493 325.065 27.7947 325.135 26.9203Z" fill="#8CB1A6"/>
<path opacity="0.5" d="M318.656 40.455C318.524 40.455 318.39 40.4252 318.266 40.3581C316.534 39.4489 315.367 37.6131 315.217 35.6855C313.469 35.596 310.669 34.9924 309.141 33.6932C308.438 33.0945 308.056 32.4014 308.006 31.6338C307.971 31.1072 308.11 30.3296 308.965 29.6068C310.373 28.4144 313.136 27.8952 314.972 27.8952H315.011C314.785 25.3167 316.06 22.8474 318.251 21.8587C318.673 21.6675 319.172 21.8563 319.364 22.281C319.555 22.7033 319.364 23.2027 318.944 23.3939C316.922 24.3056 316.35 26.7624 316.84 28.6131C316.914 28.8988 316.835 29.2018 316.628 29.4155C316.422 29.6266 316.122 29.7161 315.834 29.649C314.748 29.3956 311.317 29.8229 310.053 30.8935C309.665 31.2215 309.68 31.455 309.685 31.5295C309.705 31.8301 309.884 32.1207 310.232 32.4163C311.561 33.5491 314.76 34.1254 315.983 34.0062C316.231 33.9813 316.479 34.0708 316.658 34.2496C316.837 34.4285 316.924 34.6744 316.899 34.9253C316.745 36.5052 317.627 38.1274 319.046 38.8726C319.458 39.0887 319.617 39.598 319.401 40.0079C319.249 40.2935 318.959 40.4575 318.656 40.4575V40.455Z" fill="#8CB1A6"/>
<path d="M313.29 55.5528C313.186 55.5528 313.079 55.5329 312.977 55.4907C311.072 54.7256 309.44 53.337 308.381 51.5782C307.542 50.1871 307.075 48.5848 307.023 46.9676C305.182 47.4471 302.973 47.3825 300.772 46.759C295.762 45.3405 291.604 41.1895 290.175 36.184C288.749 31.176 290.096 25.4575 293.608 21.612C296.865 18.0448 301.895 16.1867 306.692 16.7083C306.551 14.8701 306.809 13.2628 307.47 11.8171C308.272 10.0657 309.651 8.60259 311.352 7.70085C311.762 7.48224 312.272 7.63874 312.49 8.04863C312.709 8.45851 312.552 8.96776 312.142 9.18636C310.766 9.9167 309.651 11.0991 309 12.5176C308.349 13.941 308.18 15.593 308.486 17.5728C308.528 17.8436 308.436 18.1168 308.24 18.3056C308.044 18.4969 307.768 18.5764 307.5 18.5267C302.946 17.6647 297.98 19.3216 294.853 22.7448C291.725 26.1679 290.525 31.2629 291.797 35.7219C293.067 40.181 296.771 43.8774 301.235 45.1393C303.577 45.8026 305.885 45.7529 307.567 45.0052C307.84 44.8834 308.16 44.9182 308.404 45.0946C308.647 45.271 308.776 45.5641 308.747 45.8622C308.57 47.5415 308.955 49.263 309.827 50.7112C310.699 52.157 312.043 53.3022 313.61 53.9307C314.043 54.1046 314.251 54.5939 314.078 55.0237C313.946 55.3516 313.63 55.5528 313.297 55.5528H313.29Z" fill="#8CB1A6"/>
<path opacity="0.6" d="M307.55 22.8432C307.251 22.8432 306.951 22.7935 306.668 22.6916C305.788 22.3762 305.115 21.5763 304.951 20.6571C304.869 20.2001 305.175 19.7628 305.634 19.6809C306.094 19.6014 306.529 19.9044 306.611 20.364C306.668 20.6894 306.926 20.9975 307.239 21.1092C307.552 21.221 307.945 21.149 308.198 20.9354C308.551 20.6348 309.082 20.677 309.383 21.0322C309.683 21.385 309.641 21.9166 309.286 22.2172C308.804 22.6271 308.178 22.8457 307.55 22.8457V22.8432Z" fill="#8CB1A6"/>
<path opacity="0.6" d="M305.8 42.523C305.756 42.523 305.711 42.5205 305.666 42.513C305.207 42.441 304.894 42.0087 304.968 41.5492C305.12 40.6002 305.795 39.7581 306.687 39.4029C307.579 39.0476 308.647 39.1967 309.41 39.7829C309.777 40.0661 309.847 40.5953 309.564 40.9629C309.281 41.3306 308.752 41.4001 308.384 41.1169C308.088 40.8884 307.656 40.8288 307.308 40.9679C306.96 41.107 306.687 41.4473 306.628 41.815C306.561 42.2298 306.205 42.523 305.798 42.523H305.8Z" fill="#8CB1A6"/>
<path opacity="0.6" d="M303.898 27.1937C303.378 27.1937 302.859 26.9875 302.494 26.5851C302.181 26.2398 302.208 25.7082 302.554 25.3977C302.899 25.0847 303.428 25.112 303.741 25.4573C303.793 25.5144 303.95 25.5269 304.009 25.4797C304.377 25.194 304.904 25.2586 305.189 25.6237C305.475 25.9889 305.41 26.518 305.045 26.8037C304.712 27.0646 304.302 27.1912 303.895 27.1912L303.898 27.1937Z" fill="#8CB1A6"/>
<path opacity="0.6" d="M303.361 37.9976C303.244 37.9976 303.122 37.9727 303.008 37.9206C302.586 37.7268 302.402 37.225 302.596 36.8052C302.805 36.3556 303.19 35.9904 303.652 35.809C304.114 35.6277 304.643 35.6302 305.102 35.819C305.532 35.9954 305.738 36.4847 305.564 36.9145C305.388 37.3442 304.899 37.5529 304.469 37.3765C304.409 37.3517 304.33 37.3517 304.27 37.3765C304.211 37.3989 304.153 37.4535 304.126 37.5107C303.984 37.8187 303.679 38.0001 303.361 38.0001V37.9976Z" fill="#8CB1A6"/>
<path d="M283.405 29.5433C282.399 28.8552 280.867 29.121 280.151 30.1048C279.436 31.091 279.659 32.6311 280.623 33.3739C281.59 34.1166 283.135 33.9353 283.902 32.9913C284.67 32.0474 284.623 30.378 283.403 29.5433H283.405Z" fill="#015C42"/>
<path d="M49.652 29.5433C48.646 28.8552 47.1133 29.121 46.3978 30.1048C45.6824 31.091 45.906 32.6311 46.8698 33.3739C47.8361 34.1166 49.3813 33.9353 50.1489 32.9913C50.9165 32.0474 50.8693 30.378 49.6496 29.5433H49.652Z" fill="#015C42"/>
<path opacity="0.4" d="M271.571 0H59.5989V1.68176H271.571V0Z" fill="#015C42"/>
<path opacity="0.4" d="M271.571 60.7992H59.5989V62.481H271.571V60.7992Z" fill="#015C42"/>
<path opacity="0.8" d="M297.669 57.4352H33.4978V59.1169H297.669V57.4352Z" fill="#015C42"/>
<path opacity="0.8" d="M297.669 3.3667H33.4978V5.04846H297.669V3.3667Z" fill="#015C42"/>
<path d="M250.463 55.5528C250.13 55.5528 249.814 55.3541 249.683 55.0237C249.509 54.5939 249.717 54.1021 250.15 53.9307C251.717 53.2997 253.059 52.157 253.933 50.7112C254.805 49.2655 255.187 47.5415 255.014 45.8622C254.981 45.5641 255.113 45.271 255.356 45.0946C255.6 44.9182 255.918 44.8834 256.194 45.0052C257.875 45.7529 260.186 45.8026 262.526 45.1393C266.987 43.8774 270.691 40.181 271.963 35.7219C273.232 31.2629 272.035 26.1679 268.907 22.7448C265.78 19.3216 260.814 17.6672 256.261 18.5267C255.992 18.5764 255.717 18.4944 255.518 18.3056C255.322 18.1168 255.23 17.8436 255.272 17.5728C255.577 15.593 255.409 13.941 254.758 12.5176C254.109 11.0991 252.994 9.9167 251.615 9.18636C251.205 8.96776 251.049 8.45851 251.268 8.04863C251.486 7.63874 251.995 7.48224 252.405 7.70085C254.107 8.60259 255.486 10.0657 256.288 11.8171C256.949 13.2628 257.207 14.8701 257.065 16.7083C261.862 16.1867 266.893 18.0448 270.149 21.612C273.66 25.4575 275.008 31.176 273.58 36.184C272.154 41.192 267.993 45.343 262.983 46.759C260.782 47.38 258.573 47.4471 256.733 46.9676C256.68 48.5873 256.213 50.1871 255.374 51.5782C254.316 53.337 252.681 54.7256 250.778 55.4907C250.676 55.5329 250.569 55.5528 250.465 55.5528H250.463Z" fill="#015C42"/>
</svg>
