<svg width="22" height="27" viewBox="0 0 22 27" fill="none" xmlns="http://www.w3.org/2000/svg">
<g clip-path="url(#clip0_1153_43398)">
<path d="M7.72147 4.91779C6.99283 4.84957 6.39946 4.92413 5.73846 5.23347L6.86831 6.19005L7.1112 7.27989C3.10673 7.68124 0.293613 10.6081 0.720961 14.9024C1.0776 18.5003 3.87995 20.2199 7.04971 20.8243C7.07123 21.7 6.68231 22.5772 5.73999 22.5661C5.58473 22.7168 7.07891 23.4037 7.5739 23.1182C7.85829 22.9532 7.28951 22.5265 7.26799 22.16C7.22188 21.3906 7.95052 20.6546 8.71759 20.6593C9.74138 20.6657 10.1395 21.424 10.55 22.2489C11.2171 19.6171 14.642 20.5292 13.3738 23.1943L15.3553 22.72C15.3338 22.4551 14.948 22.5883 14.6605 22.417C14.2716 22.1838 13.7428 21.2526 14.0487 20.8195C22.4312 19.7932 22.3651 8.15239 13.9995 7.26403C13.752 6.05363 14.5022 5.86009 15.2047 5.23189C14.5406 4.92889 13.9534 4.84481 13.2217 4.9162C15.0679 7.53688 10.8666 8.34117 10.5515 5.54282C10.138 8.33007 6.00593 7.61937 7.72762 4.9162L7.72147 4.91779Z" fill="#D8E5C7"/>
<path d="M9.70622 26.9778C7.98453 26.7399 7.3927 25.8182 6.12449 25.0821C5.42659 24.676 4.71486 24.5316 3.9816 23.9844C-1.7384 19.7186 -1.4202 5.89339 5.74172 3.10773C6.13371 2.95544 6.87619 2.9364 7.10985 2.78728C7.30354 2.66196 7.36964 2.21302 7.56487 1.99569C7.88615 1.63717 8.65937 1.331 9.0944 1.60703C8.92531 0.287166 10.7223 -0.583751 11.5401 0.466426C11.7799 0.774181 11.8553 1.44046 11.9859 1.53881C12.0536 1.58958 12.3733 1.44839 12.6023 1.51502C13.5585 1.79263 13.7091 2.75238 13.8506 2.84281C13.992 2.93323 14.3886 2.83963 14.6284 2.90468C18.5499 3.97706 20.642 8.43 21.0002 12.3229V15.7892C20.2992 19.2919 19.4999 22.517 16.3163 24.4254C15.397 24.9774 14.4485 25.5913 13.5278 26.1148C12.8422 26.5051 12.0904 26.651 11.3864 26.9762C10.853 26.9255 10.2243 27.0476 9.70776 26.9762L9.70622 26.9778ZM11.2327 2.39386C11.8061 1.2961 10.8176 -0.204608 9.85533 0.894745C9.19432 1.64986 10.0121 2.34945 9.85533 2.5525C9.13591 1.89257 8.08291 1.81325 7.72013 2.8666C8.59327 2.81901 9.65549 3.30761 10.1628 4.04845C10.3626 4.34034 10.3334 4.81149 10.6178 4.91619C10.5717 3.52495 12.0628 2.89992 13.2126 2.86819C12.9667 1.78153 11.989 1.98458 11.2296 2.39545L11.2327 2.39386ZM8.7885 5.38893C8.28275 5.10497 7.81082 5.50315 7.7478 6.07583C9.76156 8.22853 11.1527 4.33399 8.57021 3.49005C4.65337 2.20826 1.21306 7.1958 0.856428 10.7461L2.78872 8.40938C3.89859 7.62095 5.17449 7.0562 6.50111 6.80556C6.12603 5.50315 4.96542 5.96478 4.06 6.33282C4.73177 4.91936 6.46422 4.19915 7.94302 4.45297C8.41188 4.53388 8.86843 4.84798 8.79003 5.38893H8.7885ZM20.0825 10.589C19.6444 7.03717 16.7175 2.80156 12.8483 3.3552C10.6685 3.66613 10.4195 6.65485 12.2472 6.75955C12.9697 6.8008 13.5293 5.94574 13.0266 5.42542C12.7638 5.15256 12.3656 5.50949 12.1519 5.15256C13.0205 3.92947 14.9113 4.40697 15.955 5.16208C16.1395 5.29533 17.0311 6.14245 16.8789 6.3344C15.9858 5.90291 14.8236 5.59992 14.4393 6.80556C16.0242 7.08634 17.792 7.82242 18.9249 9.02965C19.36 9.49445 19.6351 10.1576 20.084 10.589H20.0825ZM7.72166 4.91778C6.99302 4.84956 6.39965 4.92412 5.73865 5.23347L6.86851 6.19005L7.11139 7.27988C3.10692 7.68123 0.293804 10.6081 0.721152 14.9024C1.07779 18.5003 3.88014 20.2199 7.0499 20.8243C7.07142 21.7 6.6825 22.5772 5.74018 22.5661C5.58492 22.7168 7.0791 23.4037 7.57409 23.1182C7.85848 22.9532 7.2897 22.5265 7.26818 22.16C7.22207 21.3906 7.95071 20.6546 8.71778 20.6593C9.74157 20.6657 10.1397 21.424 10.5502 22.2489C11.2173 19.6171 14.6422 20.5292 13.374 23.1943L15.3555 22.72C15.334 22.4551 14.9481 22.5883 14.6607 22.417C14.2718 22.1838 13.743 21.2526 14.0489 20.8195C22.4313 19.7932 22.3652 8.15238 13.9997 7.26402C13.7522 6.05362 14.5024 5.86008 15.2049 5.23188C14.5408 4.92888 13.9536 4.8448 13.2218 4.91619C15.0681 7.53687 10.8668 8.34116 10.5517 5.54281C10.1382 8.33006 6.00612 7.61936 7.72781 4.91619L7.72166 4.91778ZM17.5891 22.8247C18.9403 21.4287 19.9749 18.9968 20.1609 17.0472C19.4061 18.6922 18.307 19.8281 16.6775 20.5435C16.3455 20.6895 14.4485 21.232 14.4409 21.3811C14.7406 22.1664 15.4124 22.2362 16.161 22.0569C16.5223 21.9697 16.6652 21.6016 17.0311 21.6191C16.3163 23.1388 13.0943 24.7157 12.1473 22.7216C13.0066 22.7581 13.5231 22.352 13.0251 21.4969C10.6101 20.5102 10.3196 23.8495 12.4087 24.5777C14.178 25.1947 16.3363 24.1144 17.5876 22.8215L17.5891 22.8247ZM6.50265 21.1479C4.87626 20.9877 3.35595 20.2167 2.16768 19.0825L0.856428 17.209C1.19923 20.5054 3.83249 24.6475 7.34658 24.7728C8.93299 24.8299 10.8976 23.2975 9.6847 21.7206C8.92377 20.7323 7.26972 21.554 7.95071 22.4012C8.2766 22.8057 8.91762 22.6232 8.7885 22.958C7.80467 24.2683 5.75863 23.5005 4.74253 22.5693C4.60264 22.4424 3.9032 21.7856 4.06154 21.6207C4.75944 22.2822 6.59642 22.4932 6.50265 21.1495V21.1479ZM13.826 25.2455C12.401 25.3677 10.7469 24.6332 10.5455 23.0357C10.0936 24.6681 8.86997 25.3566 7.26357 25.2455C8.74238 26.6066 10.8315 26.6748 12.6454 25.9943C13.0112 25.8563 13.5877 25.5723 13.826 25.2455Z" fill="#015C42"/>
<path d="M6.50245 21.1479C6.59622 22.4932 4.75924 22.2822 4.06134 21.6191C3.90301 21.7841 4.60398 22.4408 4.74233 22.5677C5.75997 23.4989 7.80602 24.2667 8.7883 22.9564C8.91743 22.6233 8.27641 22.8041 7.95051 22.3996C7.26953 21.554 8.92358 20.7307 9.6845 21.719C10.8974 23.2943 8.9328 24.8283 7.34639 24.7712C3.83076 24.6443 1.19903 20.5039 0.856232 17.2074L2.16748 19.0809C3.35576 20.2167 4.87607 20.9861 6.50245 21.1464V21.1479Z" fill="#A9C9BF"/>
<path d="M17.5889 22.8247C16.3376 24.1176 14.1793 25.1963 12.41 24.5808C10.3209 23.8526 10.6114 20.5133 13.0264 21.5001C13.5245 22.3551 13.008 22.7612 12.1487 22.7247C13.0956 24.7188 16.3176 23.1404 17.0324 21.6222C16.6666 21.6048 16.5236 21.9728 16.1624 22.06C15.4137 22.2393 14.742 22.1695 14.4422 21.3843C14.4499 21.2351 16.3468 20.6926 16.6789 20.5467C18.3068 19.8312 19.4074 18.6954 20.1622 17.0503C19.9762 18.9999 18.9417 21.4318 17.5904 22.8278L17.5889 22.8247Z" fill="#A9C9BF"/>
<path d="M20.0823 10.589C19.6334 10.1575 19.3583 9.49437 18.9232 9.02956C17.7903 7.82234 16.0209 7.08468 14.4376 6.80547C14.8219 5.59983 15.9856 5.90442 16.8772 6.33432C17.0294 6.14396 16.1378 5.29684 15.9533 5.162C14.9095 4.4053 13.0187 3.9278 12.1502 5.15248C12.3654 5.50941 12.762 5.15248 13.0249 5.42533C13.5276 5.94566 12.9696 6.80071 12.2455 6.75947C10.4178 6.65477 10.6668 3.66605 12.8466 3.35512C16.7158 2.80306 19.6426 7.03867 20.0807 10.589H20.0823Z" fill="#A9C9BF"/>
<path d="M8.7883 5.38888C8.86823 4.84793 8.41168 4.53383 7.94129 4.45292C6.46248 4.1991 4.73003 4.91931 4.05826 6.33277C4.96369 5.96314 6.12429 5.5031 6.49937 6.80551C5.17275 7.05774 3.89685 7.6209 2.78698 8.40933L0.854691 10.746C1.21286 7.19575 4.65317 2.20821 8.57001 3.48841C11.1525 4.33236 9.76136 8.22689 7.7476 6.07419C7.81062 5.50151 8.28255 5.10333 8.7883 5.38729V5.38888Z" fill="#A9C9BF"/>
<path d="M11.2325 2.39385C11.9903 1.98299 12.9695 1.77993 13.2155 2.86659C12.0657 2.89832 10.5746 3.52335 10.6207 4.9146C10.3363 4.8099 10.3655 4.34033 10.1657 4.04685C9.65837 3.30602 8.59615 2.81583 7.72301 2.86501C8.08579 1.81166 9.13879 1.89098 9.85821 2.55091C10.015 2.34785 9.1972 1.64826 9.85821 0.89315C10.8205 -0.206204 11.8089 1.2945 11.2356 2.39227L11.2325 2.39385Z" fill="#A9C9BF"/>
<path d="M13.8258 25.2455C13.5891 25.5722 13.0126 25.8562 12.6452 25.9942C10.8313 26.6748 8.74373 26.6066 7.26338 25.2455C8.86824 25.3581 10.0919 24.668 10.5454 23.0356C10.7467 24.6331 12.4008 25.3676 13.8258 25.2455Z" fill="#A9C9BF"/>
</g>
<defs>
<clipPath id="clip0_1153_43398">
<rect width="21" height="27" fill="white"/>
</clipPath>
</defs>
</svg>
